<svg width="1536" height="821" viewBox="0 0 1536 821" fill="none" xmlns="http://www.w3.org/2000/svg">
<rect width="1536" height="821" fill="white"/>
<rect x="446.741" y="240.219" width="642.323" height="340.563" fill="white" stroke="#454545" stroke-width="4"/>
<path d="M537.042 425.264H523.042L491.342 377.364V425.264H477.342V355.364H491.342L523.042 403.364V355.364H537.042V425.264ZM564.878 366.764V384.264H588.378V395.364H564.878V413.864H591.378V425.264H550.878V355.364H591.378V366.764H564.878ZM651.6 355.464V366.764H633V425.264H619V366.764H600.4V355.464H651.6ZM701.415 389.464C705.348 390.197 708.582 392.164 711.115 395.364C713.648 398.564 714.915 402.23 714.915 406.364C714.915 410.097 713.982 413.397 712.115 416.264C710.315 419.064 707.682 421.264 704.215 422.864C700.748 424.464 696.648 425.264 691.915 425.264H661.815V355.464H690.615C695.348 355.464 699.415 356.23 702.815 357.764C706.282 359.297 708.882 361.43 710.615 364.164C712.415 366.897 713.315 369.997 713.315 373.464C713.315 377.53 712.215 380.93 710.015 383.664C707.882 386.397 705.015 388.33 701.415 389.464ZM675.815 384.264H688.615C691.948 384.264 694.515 383.53 696.315 382.064C698.115 380.53 699.015 378.364 699.015 375.564C699.015 372.764 698.115 370.597 696.315 369.064C694.515 367.53 691.948 366.764 688.615 366.764H675.815V384.264ZM689.915 413.864C693.315 413.864 695.948 413.064 697.815 411.464C699.748 409.864 700.715 407.597 700.715 404.664C700.715 401.664 699.715 399.33 697.715 397.664C695.715 395.93 693.015 395.064 689.615 395.064H675.815V413.864H689.915ZM781.573 355.464L757.973 400.964V425.264H743.973V400.964L720.273 355.464H736.073L751.073 387.364L765.973 355.464H781.573ZM837.147 355.464V366.764H818.547V425.264H804.547V366.764H785.947V355.464H837.147ZM861.362 366.764V384.264H884.862V395.364H861.362V413.864H887.862V425.264H847.362V355.364H887.862V366.764H861.362ZM924.685 425.964C919.818 425.964 915.418 425.13 911.485 423.464C907.618 421.797 904.551 419.397 902.285 416.264C900.018 413.13 898.851 409.43 898.785 405.164H913.785C913.985 408.03 914.985 410.297 916.785 411.964C918.651 413.63 921.185 414.464 924.385 414.464C927.651 414.464 930.218 413.697 932.085 412.164C933.951 410.564 934.885 408.497 934.885 405.964C934.885 403.897 934.251 402.197 932.985 400.864C931.718 399.53 930.118 398.497 928.185 397.764C926.318 396.964 923.718 396.097 920.385 395.164C915.851 393.83 912.151 392.53 909.285 391.264C906.485 389.93 904.051 387.964 901.985 385.364C899.985 382.697 898.985 379.164 898.985 374.764C898.985 370.63 900.018 367.03 902.085 363.964C904.151 360.897 907.051 358.564 910.785 356.964C914.518 355.297 918.785 354.464 923.585 354.464C930.785 354.464 936.618 356.23 941.085 359.764C945.618 363.23 948.118 368.097 948.585 374.364H933.185C933.051 371.964 932.018 369.997 930.085 368.464C928.218 366.864 925.718 366.064 922.585 366.064C919.851 366.064 917.651 366.764 915.985 368.164C914.385 369.564 913.585 371.597 913.585 374.264C913.585 376.13 914.185 377.697 915.385 378.964C916.651 380.164 918.185 381.164 919.985 381.964C921.851 382.697 924.451 383.564 927.785 384.564C932.318 385.897 936.018 387.23 938.885 388.564C941.751 389.897 944.218 391.897 946.285 394.564C948.351 397.23 949.385 400.73 949.385 405.064C949.385 408.797 948.418 412.264 946.485 415.464C944.551 418.664 941.718 421.23 937.985 423.164C934.251 425.03 929.818 425.964 924.685 425.964ZM975.522 366.764V384.264H999.022V395.364H975.522V413.864H1002.02V425.264H961.522V355.364H1002.02V366.764H975.522ZM1011.34 390.264C1011.34 383.397 1012.88 377.264 1015.94 371.864C1019.08 366.397 1023.31 362.164 1028.64 359.164C1034.04 356.097 1040.08 354.564 1046.74 354.564C1054.54 354.564 1061.38 356.564 1067.24 360.564C1073.11 364.564 1077.21 370.097 1079.54 377.164H1063.44C1061.84 373.83 1059.58 371.33 1056.64 369.664C1053.78 367.997 1050.44 367.164 1046.64 367.164C1042.58 367.164 1038.94 368.13 1035.74 370.064C1032.61 371.93 1030.14 374.597 1028.34 378.064C1026.61 381.53 1025.74 385.597 1025.74 390.264C1025.74 394.864 1026.61 398.93 1028.34 402.464C1030.14 405.93 1032.61 408.63 1035.74 410.564C1038.94 412.43 1042.58 413.364 1046.64 413.364C1050.44 413.364 1053.78 412.53 1056.64 410.864C1059.58 409.13 1061.84 406.597 1063.44 403.264H1079.54C1077.21 410.397 1073.11 415.964 1067.24 419.964C1061.44 423.897 1054.61 425.864 1046.74 425.864C1040.08 425.864 1034.04 424.364 1028.64 421.364C1023.31 418.297 1019.08 414.064 1015.94 408.664C1012.88 403.264 1011.34 397.13 1011.34 390.264Z" fill="#454545"/>
<path d="M821.601 469.216C820.561 469.216 819.625 469.032 818.793 468.664C817.977 468.28 817.329 467.768 816.849 467.128C816.369 466.472 816.113 465.744 816.081 464.944H818.913C818.961 465.504 819.225 465.976 819.705 466.36C820.201 466.728 820.817 466.912 821.553 466.912C822.321 466.912 822.913 466.768 823.329 466.48C823.761 466.176 823.977 465.792 823.977 465.328C823.977 464.832 823.737 464.464 823.257 464.224C822.793 463.984 822.049 463.72 821.025 463.432C820.033 463.16 819.225 462.896 818.601 462.64C817.977 462.384 817.433 461.992 816.969 461.464C816.521 460.936 816.297 460.24 816.297 459.376C816.297 458.672 816.505 458.032 816.921 457.456C817.337 456.864 817.929 456.4 818.697 456.064C819.481 455.728 820.377 455.56 821.385 455.56C822.889 455.56 824.097 455.944 825.009 456.712C825.937 457.464 826.433 458.496 826.497 459.808H823.761C823.713 459.216 823.473 458.744 823.041 458.392C822.609 458.04 822.025 457.864 821.289 457.864C820.569 457.864 820.017 458 819.633 458.272C819.249 458.544 819.057 458.904 819.057 459.352C819.057 459.704 819.185 460 819.441 460.24C819.697 460.48 820.009 460.672 820.377 460.816C820.745 460.944 821.289 461.112 822.009 461.32C822.969 461.576 823.753 461.84 824.361 462.112C824.985 462.368 825.521 462.752 825.969 463.264C826.417 463.776 826.649 464.456 826.665 465.304C826.665 466.056 826.457 466.728 826.041 467.32C825.625 467.912 825.033 468.376 824.265 468.712C823.513 469.048 822.625 469.216 821.601 469.216ZM841.741 462.064C841.741 462.56 841.709 463.008 841.645 463.408H831.541C831.621 464.464 832.013 465.312 832.717 465.952C833.421 466.592 834.285 466.912 835.309 466.912C836.781 466.912 837.821 466.296 838.429 465.064H841.381C840.981 466.28 840.253 467.28 839.197 468.064C838.157 468.832 836.861 469.216 835.309 469.216C834.045 469.216 832.909 468.936 831.901 468.376C830.909 467.8 830.125 467 829.549 465.976C828.989 464.936 828.709 463.736 828.709 462.376C828.709 461.016 828.981 459.824 829.525 458.8C830.085 457.76 830.861 456.96 831.853 456.4C832.861 455.84 834.013 455.56 835.309 455.56C836.557 455.56 837.669 455.832 838.645 456.376C839.621 456.92 840.381 457.688 840.925 458.68C841.469 459.656 841.741 460.784 841.741 462.064ZM838.885 461.2C838.869 460.192 838.509 459.384 837.805 458.776C837.101 458.168 836.229 457.864 835.189 457.864C834.245 457.864 833.437 458.168 832.765 458.776C832.093 459.368 831.693 460.176 831.565 461.2H838.885ZM843.522 462.376C843.522 461.016 843.794 459.824 844.338 458.8C844.898 457.76 845.666 456.96 846.642 456.4C847.618 455.84 848.738 455.56 850.002 455.56C851.602 455.56 852.922 455.944 853.962 456.712C855.018 457.464 855.73 458.544 856.098 459.952H853.146C852.906 459.296 852.522 458.784 851.994 458.416C851.466 458.048 850.802 457.864 850.002 457.864C848.882 457.864 847.986 458.264 847.314 459.064C846.658 459.848 846.33 460.952 846.33 462.376C846.33 463.8 846.658 464.912 847.314 465.712C847.986 466.512 848.882 466.912 850.002 466.912C851.586 466.912 852.634 466.216 853.146 464.824H856.098C855.714 466.168 854.994 467.24 853.938 468.04C852.882 468.824 851.57 469.216 850.002 469.216C848.738 469.216 847.618 468.936 846.642 468.376C845.666 467.8 844.898 467 844.338 465.976C843.794 464.936 843.522 463.736 843.522 462.376ZM870.8 455.776V469H868.064V467.44C867.632 467.984 867.064 468.416 866.36 468.736C865.672 469.04 864.936 469.192 864.152 469.192C863.112 469.192 862.176 468.976 861.344 468.544C860.528 468.112 859.88 467.472 859.4 466.624C858.936 465.776 858.704 464.752 858.704 463.552V455.776H861.416V463.144C861.416 464.328 861.712 465.24 862.304 465.88C862.896 466.504 863.704 466.816 864.728 466.816C865.752 466.816 866.56 466.504 867.152 465.88C867.76 465.24 868.064 464.328 868.064 463.144V455.776H870.8ZM877.146 457.696C877.546 457.024 878.074 456.504 878.73 456.136C879.402 455.752 880.194 455.56 881.106 455.56V458.392H880.41C879.338 458.392 878.522 458.664 877.962 459.208C877.418 459.752 877.146 460.696 877.146 462.04V469H874.41V455.776H877.146V457.696ZM885.013 454.024C884.517 454.024 884.101 453.856 883.765 453.52C883.429 453.184 883.261 452.768 883.261 452.272C883.261 451.776 883.429 451.36 883.765 451.024C884.101 450.688 884.517 450.52 885.013 450.52C885.493 450.52 885.901 450.688 886.237 451.024C886.573 451.36 886.741 451.776 886.741 452.272C886.741 452.768 886.573 453.184 886.237 453.52C885.901 453.856 885.493 454.024 885.013 454.024ZM886.357 455.776V469H883.621V455.776H886.357ZM896.621 455.56C897.661 455.56 898.589 455.776 899.405 456.208C900.237 456.64 900.885 457.28 901.349 458.128C901.813 458.976 902.045 460 902.045 461.2V469H899.333V461.608C899.333 460.424 899.037 459.52 898.445 458.896C897.853 458.256 897.045 457.936 896.021 457.936C894.997 457.936 894.181 458.256 893.573 458.896C892.981 459.52 892.685 460.424 892.685 461.608V469H889.949V455.776H892.685V457.288C893.133 456.744 893.701 456.32 894.389 456.016C895.093 455.712 895.837 455.56 896.621 455.56ZM910.863 455.56C911.887 455.56 912.791 455.768 913.575 456.184C914.375 456.584 914.999 457.088 915.447 457.696V455.776H918.207V469.216C918.207 470.432 917.951 471.512 917.439 472.456C916.927 473.416 916.183 474.168 915.207 474.712C914.247 475.256 913.095 475.528 911.751 475.528C909.959 475.528 908.471 475.104 907.287 474.256C906.103 473.424 905.431 472.288 905.271 470.848H907.983C908.191 471.536 908.631 472.088 909.303 472.504C909.991 472.936 910.807 473.152 911.751 473.152C912.855 473.152 913.743 472.816 914.415 472.144C915.103 471.472 915.447 470.496 915.447 469.216V467.008C914.983 467.632 914.351 468.16 913.551 468.592C912.767 469.008 911.871 469.216 910.863 469.216C909.711 469.216 908.655 468.928 907.695 468.352C906.751 467.76 905.999 466.944 905.439 465.904C904.895 464.848 904.623 463.656 904.623 462.328C904.623 461 904.895 459.824 905.439 458.8C905.999 457.776 906.751 456.984 907.695 456.424C908.655 455.848 909.711 455.56 910.863 455.56ZM915.447 462.376C915.447 461.464 915.255 460.672 914.871 460C914.503 459.328 914.015 458.816 913.407 458.464C912.799 458.112 912.143 457.936 911.439 457.936C910.735 457.936 910.079 458.112 909.471 458.464C908.863 458.8 908.367 459.304 907.983 459.976C907.615 460.632 907.431 461.416 907.431 462.328C907.431 463.24 907.615 464.04 907.983 464.728C908.367 465.416 908.863 465.944 909.471 466.312C910.095 466.664 910.751 466.84 911.439 466.84C912.143 466.84 912.799 466.664 913.407 466.312C914.015 465.96 914.503 465.448 914.871 464.776C915.255 464.088 915.447 463.288 915.447 462.376ZM939.939 455.776L931.827 475.216H928.995L931.683 468.784L926.475 455.776H929.523L933.243 465.856L937.107 455.776H939.939ZM947.74 469.216C946.492 469.216 945.364 468.936 944.356 468.376C943.348 467.8 942.556 467 941.98 465.976C941.404 464.936 941.116 463.736 941.116 462.376C941.116 461.032 941.412 459.84 942.004 458.8C942.596 457.76 943.404 456.96 944.428 456.4C945.452 455.84 946.596 455.56 947.86 455.56C949.124 455.56 950.268 455.84 951.292 456.4C952.316 456.96 953.124 457.76 953.716 458.8C954.308 459.84 954.604 461.032 954.604 462.376C954.604 463.72 954.3 464.912 953.692 465.952C953.084 466.992 952.252 467.8 951.196 468.376C950.156 468.936 949.004 469.216 947.74 469.216ZM947.74 466.84C948.444 466.84 949.1 466.672 949.708 466.336C950.332 466 950.836 465.496 951.22 464.824C951.604 464.152 951.796 463.336 951.796 462.376C951.796 461.416 951.612 460.608 951.244 459.952C950.876 459.28 950.388 458.776 949.78 458.44C949.172 458.104 948.516 457.936 947.812 457.936C947.108 457.936 946.452 458.104 945.844 458.44C945.252 458.776 944.78 459.28 944.428 459.952C944.076 460.608 943.9 461.416 943.9 462.376C943.9 463.8 944.26 464.904 944.98 465.688C945.716 466.456 946.636 466.84 947.74 466.84ZM969.285 455.776V469H966.549V467.44C966.117 467.984 965.549 468.416 964.845 468.736C964.157 469.04 963.421 469.192 962.637 469.192C961.597 469.192 960.661 468.976 959.829 468.544C959.013 468.112 958.365 467.472 957.885 466.624C957.421 465.776 957.189 464.752 957.189 463.552V455.776H959.901V463.144C959.901 464.328 960.197 465.24 960.789 465.88C961.381 466.504 962.189 466.816 963.213 466.816C964.237 466.816 965.045 466.504 965.637 465.88C966.245 465.24 966.549 464.328 966.549 463.144V455.776H969.285ZM975.631 457.696C976.031 457.024 976.559 456.504 977.215 456.136C977.887 455.752 978.679 455.56 979.591 455.56V458.392H978.895C977.823 458.392 977.007 458.664 976.447 459.208C975.903 459.752 975.631 460.696 975.631 462.04V469H972.895V455.776H975.631V457.696ZM995.012 455.56C996.052 455.56 996.98 455.776 997.796 456.208C998.628 456.64 999.276 457.28 999.74 458.128C1000.2 458.976 1000.44 460 1000.44 461.2V469H997.724V461.608C997.724 460.424 997.428 459.52 996.836 458.896C996.244 458.256 995.436 457.936 994.412 457.936C993.388 457.936 992.572 458.256 991.964 458.896C991.372 459.52 991.076 460.424 991.076 461.608V469H988.34V455.776H991.076V457.288C991.524 456.744 992.092 456.32 992.78 456.016C993.484 455.712 994.228 455.56 995.012 455.56ZM1016.05 462.064C1016.05 462.56 1016.01 463.008 1015.95 463.408H1005.85C1005.93 464.464 1006.32 465.312 1007.02 465.952C1007.73 466.592 1008.59 466.912 1009.61 466.912C1011.09 466.912 1012.13 466.296 1012.73 465.064H1015.69C1015.29 466.28 1014.56 467.28 1013.5 468.064C1012.46 468.832 1011.17 469.216 1009.61 469.216C1008.35 469.216 1007.21 468.936 1006.21 468.376C1005.21 467.8 1004.43 467 1003.85 465.976C1003.29 464.936 1003.01 463.736 1003.01 462.376C1003.01 461.016 1003.29 459.824 1003.83 458.8C1004.39 457.76 1005.17 456.96 1006.16 456.4C1007.17 455.84 1008.32 455.56 1009.61 455.56C1010.86 455.56 1011.97 455.832 1012.95 456.376C1013.93 456.92 1014.69 457.688 1015.23 458.68C1015.77 459.656 1016.05 460.784 1016.05 462.064ZM1013.19 461.2C1013.17 460.192 1012.81 459.384 1012.11 458.776C1011.41 458.168 1010.53 457.864 1009.49 457.864C1008.55 457.864 1007.74 458.168 1007.07 458.776C1006.4 459.368 1006 460.176 1005.87 461.2H1013.19ZM1021.93 458.008V465.328C1021.93 465.824 1022.04 466.184 1022.27 466.408C1022.51 466.616 1022.91 466.72 1023.47 466.72H1025.15V469H1022.99C1021.75 469 1020.81 468.712 1020.15 468.136C1019.5 467.56 1019.17 466.624 1019.17 465.328V458.008H1017.61V455.776H1019.17V452.488H1021.93V455.776H1025.15V458.008H1021.93ZM1045.43 455.776L1041.32 469H1038.44L1035.78 459.232L1033.12 469H1030.24L1026.11 455.776H1028.89L1031.65 466.408L1034.46 455.776H1037.32L1040 466.36L1042.74 455.776H1045.43ZM1053.21 469.216C1051.96 469.216 1050.83 468.936 1049.82 468.376C1048.82 467.8 1048.02 467 1047.45 465.976C1046.87 464.936 1046.58 463.736 1046.58 462.376C1046.58 461.032 1046.88 459.84 1047.47 458.8C1048.06 457.76 1048.87 456.96 1049.9 456.4C1050.92 455.84 1052.06 455.56 1053.33 455.56C1054.59 455.56 1055.74 455.84 1056.76 456.4C1057.78 456.96 1058.59 457.76 1059.18 458.8C1059.78 459.84 1060.07 461.032 1060.07 462.376C1060.07 463.72 1059.77 464.912 1059.16 465.952C1058.55 466.992 1057.72 467.8 1056.66 468.376C1055.62 468.936 1054.47 469.216 1053.21 469.216ZM1053.21 466.84C1053.91 466.84 1054.57 466.672 1055.18 466.336C1055.8 466 1056.3 465.496 1056.69 464.824C1057.07 464.152 1057.26 463.336 1057.26 462.376C1057.26 461.416 1057.08 460.608 1056.71 459.952C1056.34 459.28 1055.86 458.776 1055.25 458.44C1054.64 458.104 1053.98 457.936 1053.28 457.936C1052.58 457.936 1051.92 458.104 1051.31 458.44C1050.72 458.776 1050.25 459.28 1049.9 459.952C1049.54 460.608 1049.37 461.416 1049.37 462.376C1049.37 463.8 1049.73 464.904 1050.45 465.688C1051.18 466.456 1052.1 466.84 1053.21 466.84ZM1065.51 457.696C1065.91 457.024 1066.44 456.504 1067.1 456.136C1067.77 455.752 1068.56 455.56 1069.47 455.56V458.392H1068.78C1067.71 458.392 1066.89 458.664 1066.33 459.208C1065.79 459.752 1065.51 460.696 1065.51 462.04V469H1062.78V455.776H1065.51V457.696ZM1077.22 462.4L1083.32 469H1079.62L1074.72 463.312V469H1071.99V451.24H1074.72V461.56L1079.52 455.776H1083.32L1077.22 462.4Z" fill="#454545"/>
<rect x="1082.5" y="353.786" width="235.416" height="136.969" fill="white"/>
</svg>
